<?xml version="1.0" encoding="UTF-8"?><svg id="Layer_1" xmlns="http://www.w3.org/2000/svg" viewBox="0 0 650 250"><defs><style>.cls-1{fill:#003f72;}.cls-2{fill:#006baa;}.cls-3{fill:#f7941d;}</style></defs><path class="cls-1" d="M406.59,120.91l-17.27,51.17h-10.18l-7.32-19.88c-.57-1.59-1.31-3.88-2.24-6.86h-.23c-.31,1.49-1,3.72-2.08,6.7l-7.22,20.04h-9.79l-18.5-51.17h13.18l9.02,28.36c.31.92.9,3.11,1.77,6.55h.23c.46-1.85,1.1-4.03,1.92-6.55l6.38-19.22-3.32-9.14h11.66l9.48,27.43c.62,1.64,1.41,4.11,2.39,7.4h.23c.31-1.54.9-3.96,1.77-7.24l8.17-27.59h11.95ZM447.37,171.7h-12.75l-4.82-12.1h-16.53l-4.65,12.1h-11.5l19.96-51.09h9.24l21.04,51.09h0ZM426.26,150.2l-2.8-8.01c-.98-2.82-1.61-4.9-1.87-6.24h-.08c-.26,1.54-.88,3.56-1.87,6.07l-3.04,8.19h9.64ZM491.68,171.7h-13.33c-4.93-8.58-7.68-13.33-8.25-14.26-1.75-2.88-3.01-4.47-3.78-4.78h-3.54v19.03h-11.79v-50.78h15.88c6.52,0,11.4,1.47,14.64,4.39,2.82,2.57,4.24,6.04,4.24,10.4,0,2.98-.95,5.7-2.85,8.17-1.59,2.06-3.65,3.67-6.17,4.86v.08c1.23.72,3.13,3.11,5.7,7.17,1.44,2.31,4.52,7.55,9.25,15.72h0ZM474.11,136.98c0-1.86-.64-3.41-1.92-4.65-1.27-1.24-2.96-1.86-5.05-1.86h-4.36v13.8h4.28c2.04,0,3.73-.68,5.05-2.05,1.33-1.37,1.99-3.11,1.99-5.23h0ZM525.74,171.7h-30.36v-50.78h30.52l-2.85,9.56h-15.87v10.56h15.95v9.56h-15.95v11.56h18.57v9.55h0Z"/><path class="cls-2" d="M99.04,156.98c0,4.68-1.87,8.45-5.62,11.33-3.55,2.77-8.07,4.16-13.56,4.16-6.16,0-11.76-1.67-16.8-5.01l4.47-8.4c4.01,2.73,7.91,4.08,11.71,4.08,2,0,3.65-.36,4.93-1.08,1.59-.82,2.39-2.03,2.39-3.62,0-2.21-2.31-4.45-6.93-6.7-5.91-2.93-9.76-5.42-11.56-7.48-2.11-2.47-3.16-5.47-3.16-9.02,0-4.11,1.51-7.55,4.55-10.33,3.34-3.03,7.78-4.55,13.33-4.55,5.09,0,9.5,1.05,13.25,3.16l-.23,9.86c-4.93-2.52-9.04-3.78-12.33-3.78-1.8,0-3.26.37-4.39,1.12-1.13.75-1.7,1.74-1.7,2.97,0,2.11,1.87,4.13,5.63,6.09,5.91,3.03,9.37,4.96,10.4,5.78,3.75,2.98,5.62,6.78,5.62,11.41h0Z"/><polygon class="cls-2" points="134.64 171.7 104.28 171.7 104.28 120.91 134.8 120.91 131.95 130.47 116.07 130.47 116.07 141.03 132.03 141.03 132.03 150.58 116.07 150.58 116.07 162.14 134.64 162.14 134.64 171.7 134.64 171.7"/><path class="cls-2" d="M172.02,155.98c-2.57-4.06-4.47-6.45-5.7-7.17v-.08c2.52-1.18,4.57-2.8,6.17-4.86,1.9-2.47,2.85-5.19,2.85-8.17,0-4.37-1.41-7.83-4.24-10.4-3.24-2.93-8.12-4.39-14.64-4.39h-15.87v50.78h11.79v-19.03h3.54c.77.31,2.03,1.9,3.78,4.78.56.92,3.31,5.68,8.25,14.26h13.33c-4.73-8.17-7.81-13.41-9.25-15.72h0ZM161.7,142.21c-1.32,1.37-3.01,2.05-5.05,2.05h-4.28v-13.8h4.36c2.09,0,3.78.62,5.05,1.86,1.27,1.24,1.91,2.79,1.91,4.65,0,2.12-.66,3.86-1.99,5.23h0Z"/><path class="cls-2" d="M228.97,120.99l-22.66,51.09h-9.01l-21.04-51.09h12.93l9.7,25.28c1.18,3.13,2.36,6.39,3.54,9.79h.15c1.03-3.14,2.21-6.28,3.54-9.41l10.79-25.65h12.05Z"/><polygon class="cls-2" points="247.16 171.7 232.59 171.7 232.59 120.91 247.16 120.91 247.16 171.7 247.16 171.7"/><path class="cls-2" d="M294.54,166.99c-5.8,3.65-11.81,5.47-18.03,5.47-8.22,0-14.72-2.52-19.5-7.55-4.57-4.67-6.86-10.71-6.86-18.11s2.59-13.72,7.78-18.65c5.45-5.19,12.53-7.78,21.27-7.78,5.39,0,9.84.87,13.33,2.62l-.23,10.17c-3.85-2.26-8.04-3.39-12.56-3.39-5.65,0-9.94,1.7-12.87,5.09-2.57,2.88-3.85,6.58-3.85,11.1s1.43,8.58,4.28,11.71c2.85,3.14,6.61,4.7,11.29,4.7,4.31,0,8.58-1.15,12.79-3.47l3.16,8.09h0Z"/><polygon class="cls-2" points="311.34 150.58 327.29 150.58 327.29 141.03 311.34 141.03 311.34 130.47 327.22 130.47 327.25 130.37 323.95 120.91 299.55 120.91 299.55 171.7 329.91 171.7 329.91 162.14 311.34 162.14 311.34 150.58 311.34 150.58"/><path class="cls-3" d="M560.29,78.64c-14.39,0-26.05,11.66-26.05,26.05,0,8.33,3.92,15.74,10,20.51v-17.66c-.95-.6-1.58-1.65-1.58-2.85,0-1.87,1.51-3.38,3.38-3.38s3.38,1.51,3.38,3.38c0,1.2-.63,2.25-1.58,2.85v20.03c1.84,1,3.82,1.79,5.9,2.33v-22.36c-.95-.6-1.58-1.65-1.58-2.85,0-1.87,1.51-3.38,3.38-3.38s3.38,1.51,3.38,3.38c0,1.2-.63,2.25-1.58,2.85v23.03c.97.11,1.95.17,2.95.17s1.98-.06,2.95-.17v-23.02c-.95-.6-1.58-1.65-1.58-2.85,0-1.87,1.51-3.38,3.38-3.38s3.38,1.51,3.38,3.38c0,1.2-.63,2.25-1.58,2.85v22.36c2.08-.54,4.05-1.33,5.89-2.33v-20.04c-.95-.6-1.58-1.65-1.58-2.85,0-1.87,1.51-3.38,3.38-3.38s3.38,1.51,3.38,3.38c0,1.2-.63,2.25-1.58,2.85v17.66c6.09-4.77,10-12.18,10-20.51,0-14.38-11.66-26.05-26.05-26.05h0Z"/></svg>