<?xml version="1.0" encoding="UTF-8"?><svg id="Layer_1" xmlns="http://www.w3.org/2000/svg" viewBox="0 0 538.58 170.08"><defs><style>.cls-1{fill:#fff;}.cls-2{fill:#f7941d;}</style></defs><path class="cls-1" d="M344.19,64.22l-14.09,41.77h-8.31l-5.98-16.23c-.46-1.3-1.07-3.17-1.82-5.6h-.19c-.25,1.22-.82,3.04-1.7,5.47l-5.89,16.36h-7.99l-15.1-41.77h10.76l7.36,23.15c.25.75.73,2.54,1.45,5.35h.19c.38-1.51.9-3.29,1.57-5.35l5.21-15.69-2.71-7.46h9.52l7.74,22.39c.5,1.34,1.15,3.35,1.95,6.04h.19c.25-1.26.73-3.23,1.45-5.91l6.67-22.52h9.75ZM377.48,105.67h-10.41l-3.93-9.88h-13.49l-3.79,9.88h-9.39l16.29-41.7h7.55l17.17,41.7ZM360.24,88.12l-2.28-6.54c-.8-2.31-1.31-4-1.52-5.09h-.06c-.21,1.26-.72,2.91-1.52,4.95l-2.48,6.68h7.87ZM413.65,105.67h-10.88c-4.03-7-6.27-10.88-6.73-11.64-1.43-2.35-2.45-3.65-3.08-3.9h-2.89v15.54h-9.62v-41.45h12.96c5.32,0,9.31,1.2,11.95,3.59,2.31,2.1,3.46,4.93,3.46,8.49,0,2.43-.78,4.65-2.33,6.67-1.3,1.68-2.98,3-5.03,3.96v.06c1.01.59,2.56,2.54,4.66,5.85,1.17,1.89,3.69,6.16,7.55,12.83ZM399.31,77.33c0-1.52-.52-2.78-1.56-3.79-1.04-1.01-2.42-1.52-4.12-1.52h-3.56v11.26h3.5c1.67,0,3.04-.56,4.12-1.68,1.08-1.12,1.63-2.54,1.63-4.27ZM441.45,105.67h-24.78v-41.45h24.91l-2.33,7.8h-12.96v8.62h13.02v7.8h-13.02v9.44h15.16v7.8Z"/><path class="cls-1" d="M93.15,93.66c0,3.82-1.53,6.9-4.59,9.25-2.89,2.26-6.59,3.4-11.07,3.4-5.03,0-9.6-1.36-13.71-4.09l3.65-6.86c3.27,2.22,6.46,3.33,9.56,3.33,1.64,0,2.98-.29,4.03-.88,1.3-.67,1.95-1.66,1.95-2.96,0-1.8-1.89-3.63-5.66-5.47-4.82-2.39-7.97-4.42-9.44-6.1-1.72-2.01-2.58-4.47-2.58-7.36,0-3.35,1.24-6.16,3.71-8.43,2.72-2.48,6.35-3.71,10.88-3.71,4.15,0,7.76.86,10.82,2.58l-.19,8.05c-4.03-2.05-7.38-3.08-10.06-3.08-1.47,0-2.66.31-3.58.91-.92.61-1.38,1.42-1.38,2.42,0,1.72,1.53,3.37,4.59,4.97,4.82,2.48,7.65,4.05,8.49,4.72,3.06,2.43,4.59,5.54,4.59,9.31Z"/><polygon class="cls-1" points="122.21 105.67 97.43 105.67 97.43 64.22 122.34 64.22 120.01 72.02 107.06 72.02 107.06 80.64 120.08 80.64 120.08 88.43 107.06 88.43 107.06 97.87 122.21 97.87 122.21 105.67"/><path class="cls-1" d="M152.72,92.84c-2.1-3.31-3.65-5.26-4.66-5.85v-.06c2.05-.96,3.73-2.29,5.03-3.96,1.55-2.01,2.33-4.23,2.33-6.67,0-3.56-1.15-6.39-3.46-8.49-2.64-2.39-6.63-3.59-11.95-3.59h-12.96v41.45h9.62v-15.54h2.89c.63.25,1.66,1.55,3.08,3.9.46.76,2.7,4.63,6.73,11.64h10.88c-3.86-6.67-6.38-10.94-7.55-12.83ZM144.3,81.6c-1.08,1.12-2.46,1.68-4.12,1.68h-3.5v-11.26h3.56c1.71,0,3.08.51,4.12,1.52,1.04,1.01,1.56,2.28,1.56,3.79,0,1.73-.54,3.15-1.63,4.27Z"/><path class="cls-1" d="M199.2,64.28l-18.49,41.7h-7.36l-17.17-41.7h10.56l7.92,20.63c.96,2.56,1.93,5.22,2.89,7.99h.12c.84-2.56,1.8-5.12,2.89-7.68l8.8-20.94h9.84Z"/><rect class="cls-1" x="202.16" y="64.22" width="9.62" height="41.45"/><path class="cls-1" d="M252.73,101.83c-4.74,2.98-9.64,4.47-14.72,4.47-6.71,0-12.01-2.05-15.91-6.16-3.73-3.82-5.6-8.74-5.6-14.78s2.12-11.2,6.35-15.22c4.44-4.23,10.23-6.35,17.36-6.35,4.4,0,8.03.71,10.88,2.14l-.19,8.3c-3.15-1.84-6.56-2.77-10.25-2.77-4.61,0-8.11,1.38-10.5,4.15-2.1,2.35-3.15,5.37-3.15,9.06s1.16,7,3.49,9.56c2.33,2.56,5.4,3.84,9.22,3.84,3.52,0,7-.94,10.44-2.83l2.58,6.6Z"/><polygon class="cls-1" points="266.44 88.43 279.46 88.43 279.46 80.64 266.44 80.64 266.44 72.02 279.4 72.02 279.42 71.94 276.73 64.22 256.82 64.22 256.82 105.67 281.6 105.67 281.6 97.87 266.44 97.87 266.44 88.43"/><path class="cls-2" d="M469.64,29.71c-11.74,0-21.26,9.52-21.26,21.26,0,6.8,3.2,12.85,8.16,16.74v-14.41c-.77-.49-1.29-1.34-1.29-2.33,0-1.52,1.23-2.76,2.76-2.76s2.76,1.23,2.76,2.76c0,.98-.52,1.84-1.29,2.33v16.35c1.5.82,3.12,1.46,4.81,1.9v-18.26c-.77-.49-1.29-1.34-1.29-2.33,0-1.52,1.23-2.76,2.76-2.76s2.76,1.23,2.76,2.76c0,.98-.52,1.84-1.29,2.33v18.79c.79.09,1.59.14,2.41.14s1.62-.05,2.41-.14v-18.79c-.77-.49-1.29-1.34-1.29-2.33,0-1.52,1.23-2.76,2.76-2.76s2.76,1.23,2.76,2.76c0,.98-.52,1.84-1.29,2.33v18.26c1.7-.44,3.31-1.08,4.81-1.9v-16.35c-.77-.49-1.29-1.34-1.29-2.33,0-1.52,1.23-2.76,2.76-2.76s2.76,1.23,2.76,2.76c0,.98-.52,1.84-1.29,2.33v14.41c4.97-3.89,8.16-9.94,8.16-16.74,0-11.74-9.52-21.26-21.26-21.26Z"/></svg>