<?xml version="1.0" encoding="UTF-8"?><svg id="Layer_1" xmlns="http://www.w3.org/2000/svg" viewBox="0 0 216 216"><defs><style>.cls-1{fill:#f7941d;}</style></defs><path class="cls-1" d="M108,0C48.35,0,0,48.35,0,108c0,34.54,16.23,65.27,41.46,85.04v-73.22c-3.92-2.48-6.54-6.83-6.54-11.82,0-7.74,6.27-14.01,14.01-14.01s14.01,6.27,14.01,14.01c0,4.99-2.62,9.33-6.54,11.82v83.08c7.64,4.16,15.83,7.43,24.45,9.66v-92.74c-3.92-2.48-6.54-6.83-6.54-11.82,0-7.74,6.27-14.01,14.01-14.01s14.01,6.27,14.01,14.01c0,4.99-2.62,9.33-6.54,11.82v95.48c4.01.45,8.09.71,12.22.71s8.21-.25,12.22-.71v-95.47c-3.92-2.48-6.55-6.83-6.55-11.82,0-7.74,6.27-14.01,14.01-14.01s14.01,6.27,14.01,14.01c0,4.98-2.62,9.33-6.54,11.82v92.74c8.61-2.23,16.8-5.5,24.44-9.66v-83.08c-3.92-2.48-6.54-6.83-6.54-11.82,0-7.74,6.27-14.01,14.01-14.01s14.01,6.27,14.01,14.01c0,4.99-2.62,9.33-6.54,11.82v73.22c25.23-19.77,41.47-50.5,41.47-85.04C216,48.35,167.65,0,108,0h0Z"/></svg>